<svg viewBox="10072 14122 856 1456" version="1.2" preserveAspectRatio="xMidYMid" fill-rule="evenodd" stroke-width="28.222" stroke-linejoin="round" xmlns="http://www.w3.org/2000/svg" xmlns:xlink="http://www.w3.org/1999/xlink" xmlns:svg="urn:oasis:names:tc:opendocument:xmlns:svg-compatible:1.0" xml:space="preserve">
 
 
 
 <g>
  <g id="id2" class="Master_Slide">
   <g id="bg-id2" class="Background"/>
   <g id="bo-id2" class="BackgroundObjects"/>
  </g>
 </g>
 <g class="SlideGroup">
  <g>
   <g id="container-id1">
    <g id="id1" class="Slide" clip-path="url(#presentation_clip_path)">
     <g class="Page">
      <g class="Graphic">
       <g id="id3">
        <rect class="BoundingBox" stroke="none" fill="none" x="10100" y="14150" width="800" height="1400"/>
        <path fill="rgb(250,250,250)" stroke="none" d="M 10142,14478 L 10767,14478 10767,14478 C 10786,14478 10801,14493 10801,14510 L 10801,14722 10801,14722 C 10801,14741 10786,14755 10767,14755 L 10142,14755 10142,14755 C 10123,14755 10108,14741 10108,14722 L 10108,14510 10108,14510 C 10108,14493 10123,14478 10142,14478 Z "/>
        <path fill="rgb(0,80,115)" stroke="none" d="M 10767,14484 L 10767,14484 C 10782,14484 10794,14495 10794,14510 L 10794,14722 10794,14722 C 10794,14736 10782,14749 10767,14749 L 10142,14749 10142,14749 C 10128,14749 10115,14736 10115,14722 L 10115,14510 10115,14510 C 10115,14495 10128,14484 10142,14484 L 10767,14484 Z M 10767,14470 L 10142,14470 10142,14470 C 10119,14472 10102,14489 10102,14510 L 10102,14722 10102,14722 C 10102,14745 10119,14762 10142,14762 L 10767,14762 10767,14762 C 10790,14762 10807,14745 10807,14722 L 10807,14510 10807,14510 C 10807,14489 10790,14470 10767,14470 Z "/>
        <path fill="rgb(0,80,115)" stroke="none" d="M 10676,14575 L 10676,14523 10572,14523 10572,14546 10339,14546 10339,14523 10235,14523 10235,14575 10339,14575 10339,14575 10441,14618 10339,14658 10339,14658 10235,14658 10235,14711 10339,14711 10339,14688 10572,14688 10572,14711 10676,14711 10676,14658 10572,14658 10572,14660 10466,14618 10572,14575 10572,14578 10676,14575 Z M 10339,14554 L 10572,14554 10572,14563 10453,14611 10339,14565 10339,14554 Z M 10572,14679 L 10339,14679 10339,14669 10453,14622 10572,14671 10572,14679 Z "/>
        <path fill="rgb(250,250,250)" stroke="none" d="M 10140,14796 L 10765,14796 10765,14796 C 10784,14796 10798,14810 10798,14829 L 10798,15454 10798,15454 C 10798,15473 10784,15488 10765,15488 L 10140,15488 10140,15488 C 10121,15488 10106,15473 10106,15454 L 10106,14829 10106,14829 C 10106,14810 10121,14796 10140,14796 Z "/>
        <path fill="rgb(0,80,115)" stroke="none" d="M 10765,14802 L 10765,14802 C 10779,14802 10792,14815 10792,14829 L 10792,15454 10792,15454 C 10792,15469 10779,15481 10765,15481 L 10140,15481 10140,15481 C 10125,15481 10113,15469 10113,15454 L 10113,14829 10113,14829 C 10113,14815 10125,14802 10140,14802 L 10765,14802 Z M 10765,14789 L 10140,14789 10140,14789 C 10117,14789 10100,14806 10100,14829 L 10100,15454 10100,15454 C 10100,15477 10117,15494 10140,15494 L 10765,15494 10765,15494 C 10788,15494 10805,15477 10805,15454 L 10805,14829 10805,14829 C 10805,14806 10788,14789 10765,14789 Z "/>
        <path fill="rgb(0,80,115)" stroke="none" d="M 10754,14944 L 10627,15026 10627,14969 10487,14969 10487,14916 10627,14916 10627,14859 10754,14944 Z "/>
        <path fill="rgb(0,80,115)" stroke="none" d="M 10684,15208 L 10557,15293 10557,15236 10417,15236 10417,15181 10557,15181 10557,15124 10684,15208 Z "/>
        <path fill="rgb(0,80,115)" stroke="none" d="M 10151,15342 L 10278,15257 10278,15314 10417,15314 10417,15367 10278,15367 10278,15424 10151,15342 Z "/>
        <path fill="rgb(0,80,115)" stroke="none" d="M 10221,15075 L 10350,14990 10350,15047 10489,15047 10489,15103 10350,15103 10350,15160 10221,15075 Z "/>
        <path fill="rgb(250,250,250)" stroke="none" d="M 10144,14156 L 10771,14156 10771,14156 C 10790,14156 10805,14171 10805,14190 L 10805,14402 10805,14402 C 10805,14419 10790,14434 10771,14434 L 10144,14434 10144,14434 C 10128,14434 10113,14419 10113,14402 L 10113,14190 10113,14190 C 10113,14171 10128,14156 10144,14156 Z "/>
        <path fill="rgb(0,80,115)" stroke="none" d="M 10771,14163 L 10771,14163 C 10786,14163 10798,14175 10798,14190 L 10798,14402 10798,14402 C 10798,14417 10786,14427 10771,14427 L 10144,14427 10144,14427 C 10130,14427 10119,14417 10119,14402 L 10119,14190 10119,14190 C 10119,14175 10130,14163 10144,14163 L 10771,14163 Z M 10771,14150 L 10144,14150 10144,14150 C 10123,14150 10106,14167 10106,14190 L 10106,14402 10106,14402 C 10106,14423 10123,14442 10144,14442 L 10771,14442 10771,14442 C 10792,14442 10811,14423 10811,14402 L 10811,14190 10811,14190 C 10811,14167 10792,14150 10771,14150 Z "/>
        <path fill="rgb(0,80,115)" stroke="none" d="M 10678,14256 L 10678,14203 10576,14203 10576,14224 10341,14224 10341,14203 10238,14203 10238,14256 10341,14256 10341,14256 10445,14296 10341,14336 10341,14336 10238,14336 10238,14389 10341,14389 10341,14366 10576,14366 10576,14389 10680,14389 10680,14336 10576,14336 10576,14338 10470,14296 10576,14254 10576,14256 10678,14256 Z M 10341,14235 L 10576,14235 10576,14243 10458,14290 10341,14245 10341,14235 Z M 10576,14357 L 10341,14357 10341,14347 10456,14300 10576,14349 10576,14357 Z "/>
       </g>
      </g>
     </g>
    </g>
   </g>
  </g>
 </g>
</svg>