<svg viewBox="10235.94 14483.94 528.12 731.12" version="1.2" preserveAspectRatio="xMidYMid" fill-rule="evenodd" stroke-width="28.222" stroke-linejoin="round" xmlns="http://www.w3.org/2000/svg" xmlns:xlink="http://www.w3.org/1999/xlink" xmlns:svg="urn:oasis:names:tc:opendocument:xmlns:svg-compatible:1.0" xml:space="preserve">
 
 
 
 <g>
  <g id="id2" class="Master_Slide">
   <g id="bg-id2" class="Background"/>
   <g id="bo-id2" class="BackgroundObjects"/>
  </g>
 </g>
 <g class="SlideGroup">
  <g>
   <g id="container-id1">
    <g id="id1" class="Slide" clip-path="url(#presentation_clip_path)">
     <g class="Page">
      <g class="Graphic">
       <g id="id3">
        <rect class="BoundingBox" stroke="none" fill="none" x="10250" y="14500" width="500" height="700"/>
        <defs>
         <clipPath id="clip_path_1" clipPathUnits="userSpaceOnUse">
          <path d="M 10250,14500 L 10749,14500 10749,15199 10250,15199 10250,14500 Z "/>
         </clipPath>
        </defs>
        <g>
         <path fill="rgb(255,255,255)" stroke="none" d="M 10258,14699 L 10258,14957 10644,14957 10644,14699 10258,14699 Z M 10451,14818 L 10451,14818 C 10419,14818 10405,14777 10426,14756 L 10426,14756 C 10449,14733 10487,14750 10489,14782 L 10489,14782 C 10489,14801 10472,14818 10451,14818 Z "/>
         <path fill="rgb(255,255,255)" stroke="none" d="M 10258,14665 L 10258,14542 10258,14542 C 10261,14523 10278,14508 10299,14508 L 10606,14508 10606,14508 C 10625,14508 10642,14523 10644,14542 L 10644,14542 10644,14665 10258,14665 Z "/>
         <path fill="rgb(255,255,255)" stroke="none" d="M 10258,15072 L 10258,14995 10644,14995 10644,15072 10258,15072 Z "/>
         <path fill="rgb(255,255,255)" stroke="none" d="M 10299,15190 L 10299,15190 C 10278,15192 10261,15175 10258,15156 L 10258,15156 10258,15107 10644,15107 10644,15156 10644,15156 C 10642,15175 10625,15192 10606,15190 L 10299,15190 Z "/>
         <path fill="rgb(0,80,115)" stroke="none" d="M 10652,14676 L 10250,14676 10250,14542 10250,14542 C 10252,14517 10273,14498 10299,14500 L 10606,14500 10606,14500 C 10629,14498 10650,14517 10652,14542 L 10652,14676 Z M 10269,14657 L 10633,14657 10633,14542 10633,14542 C 10633,14528 10620,14517 10606,14519 L 10299,14519 10299,14519 C 10282,14517 10269,14528 10269,14542 L 10269,14657 Z "/>
         <path fill="rgb(0,80,115)" stroke="none" d="M 10652,15080 L 10250,15080 10250,14985 10652,14985 10652,15080 Z M 10269,15061 L 10633,15061 10633,15004 10269,15004 10269,15061 Z "/>
         <path fill="rgb(0,80,115)" stroke="none" d="M 10606,15199 L 10299,15199 10299,15199 C 10273,15201 10252,15182 10250,15156 L 10250,15097 10652,15097 10652,15156 10652,15156 C 10650,15182 10629,15201 10606,15199 Z M 10269,15116 L 10269,15156 10269,15156 C 10269,15171 10282,15182 10299,15182 L 10606,15182 10606,15182 C 10620,15182 10633,15171 10633,15156 L 10633,15116 10269,15116 Z "/>
         <path fill="rgb(0,80,115)" stroke="none" d="M 10652,14966 L 10250,14966 10250,14688 10652,14688 10652,14966 Z M 10269,14947 L 10633,14947 10633,14710 10269,14710 10269,14947 Z "/>
         <path fill="rgb(0,80,115)" stroke="none" d="M 10451,14739 L 10451,14739 C 10413,14739 10394,14784 10421,14811 L 10421,14811 C 10447,14839 10493,14820 10493,14782 L 10493,14782 C 10493,14758 10474,14739 10451,14739 Z M 10451,14811 L 10451,14811 C 10434,14811 10421,14796 10421,14782 L 10421,14782 C 10421,14767 10432,14756 10445,14752 L 10445,14782 10445,14782 C 10445,14790 10457,14790 10457,14782 L 10457,14752 10457,14752 C 10470,14756 10481,14767 10481,14782 L 10481,14782 C 10481,14796 10468,14811 10451,14811 Z "/>
         <path fill="rgb(255,255,255)" stroke="none" d="M 10451,14809 L 10451,14809 C 10434,14809 10421,14796 10421,14779 L 10421,14779 C 10421,14767 10432,14754 10445,14752 L 10445,14782 10445,14782 C 10445,14790 10457,14790 10457,14782 L 10457,14752 10457,14752 C 10470,14754 10481,14767 10481,14779 L 10481,14779 C 10481,14796 10468,14809 10451,14809 Z "/>
         <path fill="rgb(0,80,115)" stroke="none" d="M 10343,14540 L 10373,14540 10373,14540 C 10377,14540 10383,14542 10388,14544 L 10388,14544 C 10392,14544 10396,14549 10398,14551 L 10398,14551 C 10402,14555 10405,14561 10407,14566 L 10407,14566 C 10409,14574 10409,14583 10409,14589 L 10409,14589 C 10409,14597 10407,14604 10407,14610 L 10407,14610 C 10405,14616 10402,14621 10398,14625 L 10398,14625 C 10396,14629 10392,14631 10388,14633 L 10388,14633 C 10383,14635 10379,14635 10373,14635 L 10343,14635 10343,14540 Z M 10360,14557 L 10360,14619 10371,14619 10371,14619 C 10375,14621 10379,14619 10383,14619 L 10383,14619 C 10385,14616 10385,14616 10388,14614 L 10388,14614 C 10390,14612 10390,14608 10392,14606 L 10392,14606 C 10392,14599 10392,14595 10392,14589 L 10392,14589 C 10392,14585 10390,14578 10390,14572 L 10390,14572 C 10390,14570 10388,14566 10385,14564 L 10385,14564 C 10383,14561 10381,14559 10377,14559 L 10377,14559 C 10373,14559 10369,14559 10364,14559 L 10360,14557 Z "/>
         <path fill="rgb(0,80,115)" stroke="none" d="M 10421,14635 L 10421,14540 10438,14540 10468,14604 10468,14540 10483,14540 10483,14635 10468,14635 10436,14574 10436,14635 10421,14635 Z "/>
         <path fill="rgb(0,80,115)" stroke="none" d="M 10496,14606 L 10512,14604 10512,14604 C 10512,14616 10519,14623 10529,14623 L 10529,14623 C 10532,14623 10536,14621 10540,14619 L 10540,14619 C 10542,14616 10544,14612 10544,14610 L 10544,14610 C 10544,14606 10542,14604 10542,14604 L 10542,14604 C 10540,14602 10538,14599 10538,14599 L 10538,14599 C 10532,14597 10527,14595 10523,14593 L 10523,14593 C 10517,14593 10512,14591 10508,14587 L 10508,14587 C 10506,14585 10504,14583 10502,14580 L 10502,14580 C 10500,14576 10500,14572 10500,14568 L 10500,14568 C 10500,14561 10500,14557 10502,14553 L 10502,14553 C 10504,14549 10508,14544 10512,14544 L 10512,14544 C 10517,14540 10523,14540 10527,14540 L 10527,14540 C 10536,14540 10542,14542 10548,14549 L 10548,14549 C 10555,14553 10557,14561 10557,14570 L 10542,14570 10542,14570 C 10540,14566 10540,14561 10536,14559 L 10536,14559 C 10534,14555 10529,14555 10527,14555 L 10527,14555 C 10523,14555 10521,14555 10517,14557 L 10517,14557 C 10515,14559 10515,14561 10515,14564 L 10515,14564 C 10515,14568 10515,14570 10517,14570 L 10517,14570 C 10521,14574 10525,14576 10532,14576 L 10532,14576 C 10538,14578 10542,14580 10548,14585 L 10548,14585 C 10553,14587 10555,14589 10557,14593 L 10557,14593 C 10559,14597 10559,14604 10559,14608 L 10559,14608 C 10559,14616 10557,14623 10551,14629 L 10551,14629 C 10544,14635 10536,14638 10527,14638 L 10527,14638 C 10508,14638 10498,14627 10496,14606 Z "/>
        </g>
       </g>
      </g>
     </g>
    </g>
   </g>
  </g>
 </g>
</svg>