<svg viewBox="9653.46 14488.46 1692.08 732.08" version="1.2" preserveAspectRatio="xMidYMid" fill-rule="evenodd" stroke-width="28.222" stroke-linejoin="round" xmlns="http://www.w3.org/2000/svg" xmlns:xlink="http://www.w3.org/1999/xlink" xmlns:svg="urn:oasis:names:tc:opendocument:xmlns:svg-compatible:1.0" xml:space="preserve">
 
 
 
 <g>
  <g id="id2" class="Master_Slide">
   <g id="bg-id2" class="Background"/>
   <g id="bo-id2" class="BackgroundObjects"/>
  </g>
 </g>
 <g class="SlideGroup">
  <g>
   <g id="container-id1">
    <g id="id1" class="Slide" clip-path="url(#presentation_clip_path)">
     <g class="Page">
      <g class="Graphic">
       <g id="id3">
        <rect class="BoundingBox" stroke="none" fill="none" x="9687" y="14521" width="1626" height="657"/>
        <defs>
         <clipPath id="clip_path_1" clipPathUnits="userSpaceOnUse">
          <path d="M 9687,14521 L 11312,14521 11312,15177 9687,15177 9687,14521 Z "/>
         </clipPath>
        </defs>
        <g>
         <path fill="rgb(179,179,179)" stroke="none" d="M 10301,14740 L 10301,14740 C 10239,14740 10239,14740 10239,14740 10239,14990 10239,14990 10239,14990 10228,15000 10218,15011 10207,15011 10197,15011 10197,15011 10197,15000 10197,15000 10197,14990 10197,14979 10197,14740 10197,14740 10197,14740 10134,14740 10134,14740 10134,14740 10134,14990 10134,14990 10134,14990 10134,15021 10134,15031 10134,15042 10145,15063 10155,15063 10176,15063 10197,15063 10218,15052 10239,15031 10239,15063 10239,15063 10239,15063 10301,15063 10301,15063 10301,15063 10301,14740 10301,14740 10301,14740 Z M 9999,15011 L 9999,15011 C 9978,15011 9968,15000 9968,14969 9968,14834 9968,14834 9968,14834 9968,14802 9978,14792 9999,14792 10020,14792 10030,14802 10030,14834 10030,14969 10030,14969 10030,14969 10030,15000 10020,15011 9999,15011 Z M 9999,14740 L 9999,14740 C 9968,14740 9947,14750 9937,14771 9916,14781 9916,14813 9916,14844 9916,14959 9916,14959 9916,14959 9916,14990 9916,15021 9937,15031 9947,15052 9968,15063 9999,15063 10030,15063 10051,15052 10072,15031 10082,15021 10082,14990 10082,14959 10082,14844 10082,14844 10082,14844 10082,14813 10082,14781 10072,14771 10051,14750 10030,14740 9999,14740 Z M 9916,14625 L 9916,14625 C 9853,14625 9853,14625 9853,14625 9801,14802 9801,14802 9801,14802 9759,14625 9759,14625 9759,14625 9686,14625 9686,14625 9686,14625 9707,14667 9718,14709 9728,14750 9749,14813 9770,14854 9770,14886 9770,15063 9770,15063 9770,15063 9832,15063 9832,15063 9832,15063 9832,14886 9832,14886 9832,14886 9916,14625 9916,14625 9916,14625 Z "/>
         <path fill="rgb(179,179,179)" stroke="none" d="M 11301,14854 L 11301,14854 C 11301,14927 11301,15000 11291,15073 11280,15125 11239,15156 11187,15167 11072,15177 10957,15177 10843,15177 L 10832,15177 C 10822,15177 10822,15177 10812,15177 10697,15177 10582,15177 10468,15167 10426,15156 10384,15125 10374,15073 10353,15000 10353,14927 10353,14854 L 10353,14854 C 10353,14927 10353,15011 10374,15084 10384,15136 10426,15167 10468,15177 10582,15188 10697,15188 10812,15188 10822,15188 10822,15188 10832,15188 L 10843,15188 C 10957,15188 11072,15188 11187,15177 11239,15167 11280,15136 11291,15084 11301,15011 11301,14927 11301,14854 Z "/>
         <path fill="rgb(231,45,47)" stroke="none" d="M 11301,14844 L 11301,14844 C 11301,14927 11301,15000 11291,15073 11280,15125 11239,15156 11187,15167 11072,15177 10947,15177 10832,15177 10707,15177 10593,15177 10468,15167 10426,15156 10384,15125 10374,15073 10353,15000 10353,14927 10353,14844 10353,14771 10353,14698 10374,14625 10384,14573 10426,14531 10468,14531 10593,14521 10707,14521 10832,14521 10947,14521 11072,14521 11187,14531 11239,14531 11280,14573 11291,14625 11301,14698 11301,14771 11301,14844 Z "/>
         <path fill="rgb(162,32,33)" stroke="none" d="M 10801,14740 L 10801,14740 C 10739,14740 10739,14740 10739,14740 10739,14990 10739,14990 10739,14990 10728,15000 10718,15011 10707,15011 10697,15011 10697,15011 10687,15000 10687,15000 10687,14990 10687,14979 10687,14740 10687,14740 10687,14740 10634,14740 10634,14740 10634,14740 10634,14990 10634,14990 10634,14990 10634,15021 10634,15031 10634,15042 10645,15063 10655,15063 10676,15063 10697,15063 10718,15052 10739,15031 10739,15063 10739,15063 10739,15063 10801,15063 10801,15063 10801,15063 10801,14740 10801,14740 10801,14740 Z M 11124,14865 L 11124,14865 C 11124,14834 11124,14834 11124,14834 11124,14802 11134,14792 11145,14792 11166,14792 11176,14802 11176,14834 11176,14865 11176,14865 11176,14865 11124,14865 11124,14865 11124,14865 Z M 11145,14740 L 11145,14740 C 11124,14740 11093,14750 11082,14771 11072,14792 11062,14813 11062,14844 11062,14959 11062,14959 11062,14959 11062,14990 11072,15021 11082,15031 11093,15052 11124,15063 11155,15063 11176,15063 11207,15052 11218,15031 11228,15021 11228,15011 11239,15000 11239,14990 11239,14979 11239,14959 11239,14948 11239,14948 11239,14948 11176,14948 11176,14948 11176,14948 11176,14979 11176,14990 11176,14990 11176,15011 11166,15011 11145,15011 11134,15011 11124,15000 11124,14969 11124,14917 11124,14917 11124,14917 11239,14917 11239,14917 11239,14917 11239,14844 11239,14844 11239,14844 11239,14813 11228,14792 11218,14771 11197,14750 11176,14740 11145,14740 Z M 10624,14636 L 10624,14636 C 10426,14636 10426,14636 10426,14636 10426,14698 10426,14698 10426,14698 10489,14698 10489,14698 10489,14698 10489,15063 10489,15063 10489,15063 10551,15063 10551,15063 10551,15063 10551,14698 10551,14698 10551,14698 10624,14698 10624,14698 10624,14698 10624,14636 10624,14636 10624,14636 Z M 10937,15011 L 10937,15011 C 10926,15011 10916,15011 10905,15000 10905,14802 10905,14802 10905,14802 10916,14792 10926,14792 10937,14792 10947,14792 10957,14802 10957,14834 10957,14969 10957,14969 10957,14969 10957,15000 10947,15011 10937,15011 Z M 10905,14636 L 10905,14636 C 10853,14636 10853,14636 10853,14636 10853,15063 10853,15063 10853,15063 10905,15063 10905,15063 10905,15063 10905,15031 10905,15031 10905,15031 10926,15052 10947,15063 10968,15063 10989,15063 11009,15052 11009,15031 11020,15021 11020,15000 11020,14969 11020,14844 11020,14844 11020,14844 11020,14813 11020,14792 11009,14771 11009,14750 10989,14740 10968,14740 10947,14740 10926,14750 10905,14771 10905,14636 10905,14636 10905,14636 Z "/>
         <path fill="rgb(255,255,255)" stroke="none" d="M 10624,14688 L 10624,14688 C 10624,14625 10624,14625 10624,14625 10426,14625 10426,14625 10426,14625 10426,14688 10426,14688 10426,14688 10489,14688 10489,14688 10489,14688 10489,15052 10489,15052 10489,15052 10551,15052 10551,15052 10551,15052 10551,14688 10551,14688 10551,14688 L 10624,14688 Z M 10739,15052 L 10739,15052 C 10739,15021 10739,15021 10739,15021 10718,15042 10697,15063 10676,15063 10655,15063 10645,15052 10634,15031 10634,15021 10634,15011 10634,14990 10634,14740 10634,14740 10634,14740 10687,14740 10687,14740 10687,14740 10687,14969 10687,14969 10687,14969 10687,14979 10687,14990 10687,14990 10697,15000 10697,15011 10707,15011 10718,15011 10728,15000 10739,14979 10739,14740 10739,14740 10739,14740 10801,14740 10801,14740 10801,14740 10801,15052 10801,15052 10801,15052 L 10739,15052 Z M 10957,14959 L 10957,14959 C 10957,14990 10947,15011 10937,15011 10926,15011 10916,15000 10905,14990 10905,14802 10905,14802 10905,14802 10916,14792 10926,14781 10937,14781 10947,14781 10957,14802 10957,14823 L 10957,14959 Z M 11020,14959 L 11020,14959 C 11020,14834 11020,14834 11020,14834 11020,14802 11020,14781 11009,14771 11009,14740 10989,14729 10968,14729 10947,14729 10926,14740 10905,14771 10905,14625 10905,14625 10905,14625 10853,14625 10853,14625 10853,14625 10853,15052 10853,15052 10853,15052 10905,15052 10905,15052 10905,15052 10905,15021 10905,15021 10905,15021 10926,15052 10947,15063 10968,15063 10989,15063 11009,15042 11009,15021 11020,15011 11020,14990 11020,14959 Z M 11176,14854 L 11176,14854 C 11124,14854 11124,14854 11124,14854 11124,14834 11124,14834 11124,14834 11124,14802 11134,14781 11145,14781 11166,14781 11176,14802 11176,14834 L 11176,14854 Z M 11239,14948 L 11239,14948 11239,14948 C 11176,14948 11176,14948 11176,14948 11176,14969 11176,14979 11176,14979 11176,15000 11166,15011 11145,15011 11134,15011 11124,14990 11124,14959 11124,14906 11124,14906 11124,14906 11239,14906 11239,14906 11239,14906 11239,14844 11239,14844 11239,14844 11239,14802 11228,14781 11218,14761 11197,14740 11176,14729 11145,14729 11124,14729 11093,14740 11082,14761 11072,14781 11062,14802 11062,14844 11062,14948 11062,14948 11062,14948 11062,14990 11072,15011 11082,15031 11093,15052 11124,15063 11155,15063 11176,15063 11207,15052 11218,15021 11228,15011 11228,15000 11239,14990 11239,14979 11239,14969 11239,14948 Z "/>
         <path fill="rgb(0,0,0)" stroke="none" d="M 9916,14625 L 9916,14625 C 9853,14625 9853,14625 9853,14625 9801,14792 9801,14792 9801,14792 9759,14625 9759,14625 9759,14625 9686,14625 9686,14625 9686,14625 9707,14667 9718,14709 9728,14740 9749,14802 9770,14844 9770,14875 9770,15052 9770,15052 9770,15052 9832,15052 9832,15052 9832,15052 9832,14875 9832,14875 9832,14875 L 9916,14625 Z M 10082,14948 L 10082,14948 C 10082,14834 10082,14834 10082,14834 10082,14802 10082,14781 10072,14761 10051,14740 10030,14729 9999,14729 9968,14729 9947,14740 9937,14761 9916,14781 9916,14802 9916,14834 9916,14948 9916,14948 9916,14948 9916,14979 9916,15011 9937,15021 9947,15052 9968,15063 9999,15063 10030,15063 10051,15052 10072,15021 10082,15011 10082,14979 10082,14948 Z M 10030,14959 L 10030,14959 C 10030,14990 10020,15011 9999,15011 9978,15011 9968,14990 9968,14959 9968,14823 9968,14823 9968,14823 9968,14792 9978,14781 9999,14781 10020,14781 10030,14792 10030,14823 L 10030,14959 Z M 10301,15052 L 10301,15052 C 10301,14729 10301,14729 10301,14729 10239,14729 10239,14729 10239,14729 10239,14979 10239,14979 10239,14979 10228,15000 10218,15011 10207,15011 10197,15011 10197,15000 10197,14990 10197,14990 10197,14979 10197,14969 10197,14729 10197,14729 10197,14729 10134,14729 10134,14729 10134,14729 10134,14990 10134,14990 10134,14990 10134,15011 10134,15021 10134,15031 10145,15052 10155,15063 10176,15063 10197,15063 10218,15042 10239,15021 10239,15052 10239,15052 10239,15052 L 10301,15052 Z "/>
        </g>
       </g>
      </g>
     </g>
    </g>
   </g>
  </g>
 </g>
</svg>