<svg viewBox="9978.78 14318.78 1041.44 1051.44" version="1.2" preserveAspectRatio="xMidYMid" fill-rule="evenodd" stroke-width="28.222" stroke-linejoin="round" xmlns="http://www.w3.org/2000/svg" xmlns:xlink="http://www.w3.org/1999/xlink" xmlns:svg="urn:oasis:names:tc:opendocument:xmlns:svg-compatible:1.0" xml:space="preserve">
 
 
 
 <g>
  <g id="id2" class="Master_Slide">
   <g id="bg-id2" class="Background"/>
   <g id="bo-id2" class="BackgroundObjects"/>
  </g>
 </g>
 <g class="SlideGroup">
  <g>
   <g id="container-id1">
    <g id="id1" class="Slide" clip-path="url(#presentation_clip_path)">
     <g class="Page">
      <g class="Graphic">
       <g id="id3">
        <rect class="BoundingBox" stroke="none" fill="none" x="9999" y="14349" width="1001" height="1001"/>
        <defs>
         <clipPath id="clip_path_1" clipPathUnits="userSpaceOnUse">
          <path d="M 9999,14349 L 10999,14349 10999,15349 9999,15349 9999,14349 Z "/>
         </clipPath>
        </defs>
        <g>
         <path fill="rgb(255,255,255)" stroke="none" d="M 10009,14339 L 10999,14339 10999,15339 10009,15339 10009,14339 Z "/>
         <path fill="rgb(255,255,255)" stroke="none" d="M 10384,14610 L 10384,14516 10446,14474 10530,14412 10571,14412 10603,14453 10624,14589 10603,14641 10488,14641 10384,14610 Z "/>
         <path fill="rgb(255,255,255)" stroke="none" d="M 10269,14901 L 10301,14818 10353,14745 10384,14683 10405,14662 10624,14631 10665,14693 10790,14995 10749,15047 10634,15235 10603,15235 10405,15245 10259,15089 10238,14953 10269,14901 Z "/>
         <path fill="rgb(254,211,7)" stroke="none" d="M 10551,14683 L 10551,14683 C 10551,14683 10540,14672 10561,14672 10582,14672 10582,14662 10592,14662 10592,14651 10592,14641 10592,14620 10592,14610 10603,14568 10603,14558 10603,14547 10571,14495 10561,14495 10551,14485 10436,14474 10436,14474 10405,14506 10405,14506 10405,14506 10374,14526 10374,14526 10374,14526 10384,14610 10384,14610 10384,14610 10384,14610 10374,14631 10374,14641 10384,14651 10394,14662 10405,14672 10405,14683 10426,14703 10436,14714 10446,14714 10446,14724 10457,14714 10478,14714 10488,14714 10499,14703 10519,14693 10551,14683 10551,14683 Z "/>
         <path fill="rgb(255,255,255)" stroke="none" d="M 10478,14558 L 10478,14558 C 10488,14537 10488,14516 10499,14516 10509,14506 10530,14495 10551,14506 10561,14506 10582,14516 10592,14526 10592,14537 10592,14578 10592,14578 10592,14610 10592,14610 10592,14610 10571,14610 10571,14610 10571,14610 10530,14589 10530,14589 10530,14589 10519,14589 10519,14589 10519,14589 10519,14589 10509,14599 10488,14578 10467,14568 10478,14568 10478,14558 Z "/>
         <path fill="rgb(255,255,255)" stroke="none" d="M 10436,14589 L 10436,14589 C 10436,14589 10436,14589 10436,14578 10446,14578 10467,14568 10467,14568 10467,14568 10488,14526 10467,14506 10457,14485 10415,14485 10415,14485 10415,14485 10374,14506 10384,14516 10384,14526 10384,14558 10384,14558 10384,14568 10394,14610 10394,14610 10405,14610 10405,14610 10405,14610 10426,14589 10426,14589 10426,14589 10426,14589 10426,14589 10436,14589 Z "/>
         <path fill="rgb(254,211,7)" stroke="none" d="M 10717,15026 L 10717,15026 C 10717,15026 10728,15026 10738,15037 10738,15037 10738,15037 10749,15037 10759,15037 10769,15037 10790,15037 10801,15037 10811,15047 10811,15058 10821,15078 10811,15099 10832,15099 10842,15110 10874,15141 10874,15141 10884,15162 10884,15162 10884,15162 10853,15183 10853,15183 10853,15183 10707,15276 10707,15276 10707,15276 10634,15256 10634,15256 10634,15256 10634,15193 10634,15193 10634,15193 10644,15120 10644,15120 10644,15120 10634,15058 10634,15058 10634,15058 10644,15026 10644,15026 10644,15026 10676,15016 10676,15016 10676,15016 10717,15026 10717,15026 10717,15026 Z "/>
         <path fill="rgb(254,211,7)" stroke="none" d="M 10280,14995 L 10280,14995 C 10269,14995 10249,15006 10249,15006 10228,15006 10217,15016 10217,15026 10217,15037 10217,15047 10217,15047 10207,15058 10207,15058 10207,15068 L 10196,15078 C 10186,15078 10165,15078 10165,15078 10144,15078 10144,15078 10144,15078 10124,15099 10124,15099 10124,15099 10134,15141 10134,15141 10134,15141 10134,15172 10134,15172 10134,15172 10124,15214 10124,15214 10124,15214 10155,15224 10155,15224 10155,15224 10342,15276 10342,15276 10342,15276 10384,15266 10384,15266 10384,15266 10405,15203 10405,15203 10405,15203 10394,15183 10394,15183 10394,15183 10374,15151 10374,15151 10374,15151 10374,15151 10290,15016 10280,14995 Z "/>
         <path fill="rgb(35,31,32)" stroke="none" d="M 10374,14537 L 10374,14537 C 10363,14433 10405,14391 10488,14391 10571,14381 10624,14433 10634,14485 10644,14547 10644,14620 10665,14662 10686,14693 10696,14724 10738,14776 10769,14818 10790,14860 10801,14922 10811,14974 10821,15006 10790,15026 10769,15058 10717,15110 10686,15058 10665,15026 10665,14995 10696,14985 10707,14985 10728,14985 10738,14995 10759,14995 10759,14995 10738,14985 10728,14974 10717,14985 10728,14964 10728,14943 10738,14901 10728,14860 10717,14839 10686,14787 10665,14776 10665,14776 10655,14766 10665,14776 10665,14787 10707,14839 10717,14870 10728,14901 10728,14933 10717,14953 10717,14974 10707,14985 10696,14985 10676,14985 10665,14985 10665,14964 10665,14933 10676,14891 10655,14860 10644,14828 10624,14797 10624,14787 10624,14776 10613,14735 10592,14714 10571,14693 10571,14672 10582,14651 10582,14631 10582,14620 10561,14610 10540,14610 10519,14599 10509,14589 10509,14578 10509,14547 10519,14547 10540,14537 10561,14547 10561,14568 10561,14578 10551,14589 10561,14599 10561,14599 10571,14610 10582,14599 10582,14589 10582,14568 10582,14547 10571,14537 10571,14516 10551,14516 10530,14506 10519,14506 10509,14526 10499,14537 10488,14558 10488,14578 10499,14589 10488,14578 10478,14578 10467,14578 10467,14578 10457,14578 10446,14578 10457,14578 10457,14568 10457,14547 10446,14526 10436,14516 10415,14506 10394,14526 10394,14558 10394,14599 10405,14620 10415,14599 10426,14589 10415,14599 10415,14589 10405,14578 10394,14558 10405,14547 10415,14547 10426,14547 10426,14547 10436,14547 10446,14568 10446,14578 10436,14589 10436,14589 10426,14589 10415,14599 10415,14610 10405,14610 10394,14620 10384,14641 10394,14641 10405,14651 10405,14651 10415,14662 10426,14672 10436,14672 10467,14672 10499,14662 10509,14662 10540,14651 10551,14641 10551,14641 10551,14641 10561,14631 10571,14641 10561,14641 10551,14651 10530,14662 10519,14662 10499,14672 10488,14683 10446,14683 10415,14683 10446,14683 10436,14683 10426,14683 10415,14683 10426,14693 10436,14693 10436,14703 10446,14703 10457,14703 10467,14703 10478,14703 10499,14693 10530,14683 10540,14672 10551,14662 10561,14672 10551,14683 10540,14693 10540,14683 10530,14693 10519,14703 10499,14714 10488,14724 10467,14735 10467,14735 10457,14735 10436,14735 10426,14724 10426,14714 10415,14703 10415,14703 10405,14693 10394,14683 10394,14683 10394,14693 10394,14703 10384,14735 10374,14745 10363,14766 10363,14787 10363,14797 10363,14808 10363,14818 10353,14828 10342,14849 10321,14891 10321,14912 10311,14933 10311,14964 10311,14974 10311,14995 10311,15006 10290,14985 10280,14974 10280,14964 10280,14943 10280,14922 10280,14912 10280,14912 10280,14901 10280,14901 10280,14912 10269,14922 10269,14953 10269,14964 10269,14974 10269,14985 10301,15016 10321,15037 10363,15068 10394,15089 10415,15110 10436,15141 10384,15162 10415,15193 10426,15214 10415,15235 10446,15224 10436,15193 10426,15183 10405,15172 10415,15162 10426,15172 10436,15183 10436,15193 10478,15193 10519,15193 10571,15193 10592,15151 10624,15120 10624,15141 10613,15172 10613,15193 10592,15235 10624,15235 10624,15203 10634,15183 10634,15151 10634,15120 10634,15099 10634,15058 10624,15016 10644,15016 10665,15016 10686,15016 10676,15026 10665,15026 10655,15026 10644,15026 10644,15058 10644,15089 10644,15089 10644,15120 10655,15141 10655,15151 10644,15183 10644,15214 10634,15235 10655,15256 10676,15266 10707,15266 10728,15256 10738,15245 10769,15214 10801,15203 10832,15193 10853,15183 10874,15172 10884,15162 10884,15151 10863,15141 10853,15131 10832,15131 10821,15120 10811,15110 10801,15078 10811,15058 10811,15047 10821,15047 10821,15068 10821,15078 10821,15089 10832,15099 10842,15110 10853,15120 10874,15131 10894,15141 10905,15162 10874,15172 10853,15193 10842,15203 10821,15214 10801,15214 10769,15235 10759,15256 10738,15276 10728,15287 10686,15287 10655,15287 10634,15276 10624,15256 10613,15245 10613,15245 10592,15245 10582,15245 10519,15245 10478,15245 10426,15245 10415,15256 10394,15266 10374,15287 10363,15297 10332,15287 10290,15276 10269,15256 10207,15245 10155,15235 10186,15245 10144,15235 10113,15224 10113,15214 10124,15193 10124,15183 10134,15162 10124,15131 10113,15110 10124,15078 10144,15078 10176,15078 10196,15078 10207,15047 10217,15016 10228,15037 10217,15047 10217,15058 10217,15078 10196,15089 10165,15089 10165,15089 10144,15089 10134,15089 10134,15099 10134,15110 10144,15131 10155,15141 10155,15162 10144,15172 10144,15183 10134,15193 10124,15203 10124,15214 10144,15214 10165,15224 10196,15235 10228,15235 10259,15245 10269,15245 10321,15266 10374,15276 10394,15245 10394,15214 10405,15183 10374,15162 10363,15131 10342,15099 10321,15068 10290,15037 10269,15006 10249,15006 10238,15006 10228,15016 10228,15016 10228,14995 10217,14974 10217,14964 10238,14943 10249,14912 10259,14891 10280,14849 10290,14797 10311,14797 10332,14756 10353,14724 10342,14735 10363,14714 10384,14683 10374,14693 10374,14651 10374,14610 10374,14589 10374,14537 Z M 10301,14839 L 10301,14839 C 10301,14849 10311,14839 10311,14828 10321,14828 10321,14818 10321,14818 10321,14808 10311,14808 10311,14818 10311,14818 10311,14818 10311,14828 10301,14828 10290,14839 10301,14839 Z M 10624,14683 L 10624,14683 C 10634,14693 10634,14693 10644,14683 10644,14672 10644,14672 10634,14672 10624,14662 10624,14662 10613,14651 10613,14651 10603,14662 10613,14672 10613,14683 10624,14683 10624,14683 Z M 10457,14589 L 10457,14589 C 10446,14589 10446,14589 10436,14599 L 10436,14599 C 10446,14599 10446,14599 10446,14599 L 10446,14599 C 10446,14589 10446,14599 10457,14589 Z M 10478,14589 L 10478,14589 C 10478,14599 10488,14599 10488,14599 L 10499,14599 C 10499,14589 10488,14589 10488,14589 10478,14589 10478,14589 10478,14589 Z M 10540,14558 L 10540,14558 C 10540,14558 10551,14568 10551,14578 L 10551,14578 C 10561,14568 10551,14568 10551,14558 10551,14558 10551,14558 10540,14547 10540,14547 10540,14547 10530,14547 10530,14547 10530,14558 10540,14558 Z M 10426,14558 L 10426,14558 C 10415,14558 10415,14558 10415,14558 10426,14568 10426,14568 10426,14578 L 10436,14578 C 10436,14578 10436,14568 10436,14558 10426,14558 10426,14558 10426,14558 Z M 10571,14433 L 10571,14433 C 10561,14433 10551,14433 10551,14443 L 10551,14453 10551,14453 C 10540,14464 10551,14464 10551,14464 10551,14464 10561,14464 10561,14453 10571,14453 10571,14453 10582,14453 L 10582,14453 C 10582,14443 10571,14443 10571,14433 Z "/>
         <path fill="rgb(35,31,32)" stroke="none" d="M 10707,15037 L 10707,15037 10707,15026 10707,15026 10707,15047 10717,15047 10728,15037 10728,15037 C 10728,15037 10728,15037 10717,15037 L 10717,15037 10717,15026 C 10717,15026 10717,15016 10707,15026 L 10707,15037 10707,15037 C 10707,15026 10707,15026 10707,15026 10696,15026 10696,15026 10696,15026 10696,15047 10696,15047 10696,15047 10707,15047 10707,15047 10707,15047 L 10707,15037 Z "/>
         <path fill="rgb(35,31,32)" stroke="none" d="M 10738,15037 L 10738,15037 C 10738,15037 10738,15037 10738,15026 L 10738,15026 10738,15037 10738,15037 C 10728,15037 10738,15026 10738,15026 10738,15016 10738,15016 10738,15016 L 10738,15016 10738,15016 10738,15016 C 10738,15006 10738,15006 10738,15006 10728,15006 10728,15006 10728,15006 10728,15037 10728,15037 10728,15037 L 10728,15037 C 10728,15037 10728,15037 10738,15037 Z "/>
        </g>
       </g>
      </g>
     </g>
    </g>
   </g>
  </g>
 </g>
</svg>