<svg viewBox="9767.84 14539.84 1464.32 619.32" version="1.2" preserveAspectRatio="xMidYMid" fill-rule="evenodd" stroke-width="28.222" stroke-linejoin="round" xmlns="http://www.w3.org/2000/svg" xmlns:xlink="http://www.w3.org/1999/xlink" xmlns:svg="urn:oasis:names:tc:opendocument:xmlns:svg-compatible:1.0" xml:space="preserve">
 
 
 
 <g>
  <g id="id2" class="Master_Slide">
   <g id="bg-id2" class="Background"/>
   <g id="bo-id2" class="BackgroundObjects"/>
  </g>
 </g>
 <g class="SlideGroup">
  <g>
   <g id="container-id1">
    <g id="id1" class="Slide" clip-path="url(#presentation_clip_path)">
     <g class="Page">
      <g class="Graphic">
       <g id="id3">
        <rect class="BoundingBox" stroke="none" fill="none" x="9796" y="14568" width="1408" height="563"/>
        <path fill="rgb(0,0,0)" stroke="none" d="M 10192,14703 L 10192,14786 10255,14786 10255,14995 10338,14995 10338,14786 10411,14786 10411,14703 10192,14703 Z "/>
        <path fill="rgb(0,0,0)" stroke="none" d="M 10192,14703 L 10192,14786 10255,14786 10255,14995 10338,14995 10338,14786 10411,14786 10411,14703 10192,14703 Z "/>
        <path fill="rgb(0,0,0)" stroke="none" d="M 10703,14995 L 10786,14995 10786,14703 10703,14703 10703,14995 Z "/>
        <path fill="rgb(0,0,0)" stroke="none" d="M 11015,14838 L 11109,14703 11005,14703 10973,14765 10932,14703 10828,14703 10921,14838 10807,14995 10911,14995 10973,14911 11015,14995 11119,14995 11015,14838 Z "/>
        <path fill="rgb(0,0,0)" stroke="none" d="M 11015,14838 L 11109,14703 11005,14703 10973,14765 10932,14703 10828,14703 10921,14838 10807,14995 10911,14995 10973,14911 11015,14995 11119,14995 11015,14838 Z "/>
        <path fill="rgb(0,0,0)" stroke="none" d="M 9796,14849 L 9796,14849 C 9796,14932 9869,15005 9942,15005 9994,15005 10025,14984 10057,14953 10015,14880 10015,14880 10015,14880 10005,14901 9973,14922 9942,14922 9911,14922 9890,14890 9890,14849 9890,14818 9911,14786 9942,14786 9973,14786 10005,14797 10015,14818 10057,14745 10057,14745 10057,14745 10025,14724 9994,14703 9942,14703 9869,14703 9796,14765 9796,14849 Z "/>
        <path fill="rgb(0,0,0)" stroke="none" d="M 10515,14765 L 10515,14765 C 10536,14765 10557,14776 10567,14786 10567,14786 10567,14797 10567,14807 10567,14828 10557,14838 10515,14838 L 10515,14765 Z M 10598,14880 L 10598,14880 C 10630,14870 10650,14838 10650,14797 10650,14776 10640,14755 10630,14734 10609,14713 10578,14703 10546,14703 10432,14703 10432,14703 10432,14703 10432,14995 10432,14995 10432,14995 10515,14995 10515,14995 10515,14995 10515,14911 10515,14911 10515,14911 10578,14995 10578,14995 10578,14995 10682,14995 10682,14995 10682,14995 10598,14880 10598,14880 10598,14880 Z "/>
        <path fill="rgb(0,0,0)" stroke="none" d="M 10088,14995 L 10171,14995 10171,14703 10088,14703 10088,14995 Z "/>
        <path fill="rgb(0,0,0)" stroke="none" d="M 10078,14630 L 10078,14630 C 10078,14599 10098,14578 10130,14578 10161,14578 10182,14599 10182,14630 10182,14661 10161,14682 10130,14682 10098,14682 10078,14661 10078,14630 Z "/>
        <path fill="rgb(0,0,0)" stroke="none" d="M 10692,15068 L 10692,15068 C 10692,15036 10713,15015 10744,15015 10775,15015 10796,15036 10796,15068 10796,15099 10775,15130 10744,15130 10713,15130 10692,15099 10692,15068 Z "/>
        <path fill="rgb(0,0,0)" stroke="none" d="M 11171,14765 L 11171,14765 C 11150,14765 11130,14755 11130,14734 11130,14724 11150,14703 11171,14703 11182,14703 11203,14724 11203,14734 11203,14755 11182,14765 11171,14765 Z M 11171,14713 L 11171,14713 C 11150,14713 11140,14724 11140,14734 11140,14755 11150,14765 11171,14765 11182,14765 11192,14755 11192,14734 11192,14724 11182,14713 11171,14713 Z M 11171,14755 L 11171,14755 C 11171,14745 11171,14745 11171,14745 11161,14745 11161,14734 11161,14734 11161,14755 11161,14755 11161,14755 11150,14755 11150,14755 11150,14755 11150,14713 11150,14713 11150,14713 11171,14713 11171,14713 11171,14713 L 11182,14724 C 11182,14734 11171,14734 11171,14734 11171,14745 11171,14745 11171,14745 11182,14755 11182,14755 11182,14755 L 11171,14755 Z M 11161,14724 L 11161,14724 11161,14724 C 11161,14734 11161,14734 11161,14734 L 11161,14734 C 11171,14734 11171,14734 11171,14724 11171,14724 11171,14724 11161,14724 Z "/>
       </g>
      </g>
     </g>
    </g>
   </g>
  </g>
 </g>
</svg>